<svg width="60" height="175" viewBox="0 0 60 175" fill="none" xmlns="http://www.w3.org/2000/svg">
<g opacity="0.1">
<ellipse cx="1.49468" cy="1.50573" rx="1.49468" ry="1.50573" fill="black"/>
<ellipse cx="1.49468" cy="10.5401" rx="1.49468" ry="1.50573" fill="black"/>
<ellipse cx="1.49468" cy="19.5744" rx="1.49468" ry="1.50573" fill="black"/>
<ellipse cx="1.49468" cy="28.6088" rx="1.49468" ry="1.50573" fill="black"/>
<ellipse cx="1.49468" cy="37.6432" rx="1.49468" ry="1.50573" fill="black"/>
<ellipse cx="1.49468" cy="46.6775" rx="1.49468" ry="1.50573" fill="black"/>
<ellipse cx="1.49468" cy="55.7119" rx="1.49468" ry="1.50573" fill="black"/>
<ellipse cx="1.49468" cy="64.7462" rx="1.49468" ry="1.50573" fill="black"/>
<ellipse cx="1.49468" cy="73.7806" rx="1.49468" ry="1.50573" fill="black"/>
<ellipse cx="1.49468" cy="82.8149" rx="1.49468" ry="1.50573" fill="black"/>
<ellipse cx="1.49468" cy="91.8493" rx="1.49468" ry="1.50573" fill="black"/>
<ellipse cx="1.49468" cy="100.884" rx="1.49468" ry="1.50573" fill="black"/>
<ellipse cx="1.49468" cy="109.918" rx="1.49468" ry="1.50573" fill="black"/>
<ellipse cx="1.49468" cy="118.952" rx="1.49468" ry="1.50573" fill="black"/>
<ellipse cx="1.49468" cy="127.987" rx="1.49468" ry="1.50573" fill="black"/>
<ellipse cx="1.49468" cy="137.021" rx="1.49468" ry="1.50573" fill="black"/>
<ellipse cx="1.49468" cy="146.055" rx="1.49468" ry="1.50573" fill="black"/>
<ellipse cx="1.49468" cy="155.09" rx="1.49468" ry="1.50573" fill="black"/>
<ellipse cx="1.49468" cy="164.124" rx="1.49468" ry="1.50573" fill="black"/>
<ellipse cx="1.49468" cy="173.159" rx="1.49468" ry="1.50573" fill="black"/>
<ellipse cx="9.6087" cy="1.50573" rx="1.49468" ry="1.50573" fill="black"/>
<ellipse cx="9.6087" cy="10.5401" rx="1.49468" ry="1.50573" fill="black"/>
<ellipse cx="9.6087" cy="19.5744" rx="1.49468" ry="1.50573" fill="black"/>
<ellipse cx="9.6087" cy="28.6088" rx="1.49468" ry="1.50573" fill="black"/>
<ellipse cx="9.6087" cy="37.6432" rx="1.49468" ry="1.50573" fill="black"/>
<ellipse cx="9.6087" cy="46.6775" rx="1.49468" ry="1.50573" fill="black"/>
<ellipse cx="9.6087" cy="55.7119" rx="1.49468" ry="1.50573" fill="black"/>
<ellipse cx="9.6087" cy="64.7462" rx="1.49468" ry="1.50573" fill="black"/>
<ellipse cx="9.6087" cy="73.7806" rx="1.49468" ry="1.50573" fill="black"/>
<ellipse cx="9.6087" cy="82.8149" rx="1.49468" ry="1.50573" fill="black"/>
<ellipse cx="9.6087" cy="91.8493" rx="1.49468" ry="1.50573" fill="black"/>
<ellipse cx="9.6087" cy="100.884" rx="1.49468" ry="1.50573" fill="black"/>
<ellipse cx="9.6087" cy="109.918" rx="1.49468" ry="1.50573" fill="black"/>
<ellipse cx="9.6087" cy="118.952" rx="1.49468" ry="1.50573" fill="black"/>
<ellipse cx="9.6087" cy="127.987" rx="1.49468" ry="1.50573" fill="black"/>
<ellipse cx="9.6087" cy="137.021" rx="1.49468" ry="1.50573" fill="black"/>
<ellipse cx="9.6087" cy="146.055" rx="1.49468" ry="1.50573" fill="black"/>
<ellipse cx="9.6087" cy="155.09" rx="1.49468" ry="1.50573" fill="black"/>
<ellipse cx="9.6087" cy="164.124" rx="1.49468" ry="1.50573" fill="black"/>
<ellipse cx="9.6087" cy="173.159" rx="1.49468" ry="1.50573" fill="black"/>
<ellipse cx="17.7227" cy="1.50573" rx="1.49468" ry="1.50573" fill="black"/>
<ellipse cx="17.7227" cy="10.5401" rx="1.49468" ry="1.50573" fill="black"/>
<ellipse cx="17.7227" cy="19.5744" rx="1.49468" ry="1.50573" fill="black"/>
<ellipse cx="17.7227" cy="28.6088" rx="1.49468" ry="1.50573" fill="black"/>
<ellipse cx="17.7227" cy="37.6432" rx="1.49468" ry="1.50573" fill="black"/>
<ellipse cx="17.7227" cy="46.6775" rx="1.49468" ry="1.50573" fill="black"/>
<ellipse cx="17.7227" cy="55.7119" rx="1.49468" ry="1.50573" fill="black"/>
<ellipse cx="17.7227" cy="64.7462" rx="1.49468" ry="1.50573" fill="black"/>
<ellipse cx="17.7227" cy="73.7806" rx="1.49468" ry="1.50573" fill="black"/>
<ellipse cx="17.7227" cy="82.8149" rx="1.49468" ry="1.50573" fill="black"/>
<ellipse cx="17.7227" cy="91.8493" rx="1.49468" ry="1.50573" fill="black"/>
<ellipse cx="17.7227" cy="100.884" rx="1.49468" ry="1.50573" fill="black"/>
<ellipse cx="17.7227" cy="109.918" rx="1.49468" ry="1.50573" fill="black"/>
<ellipse cx="17.7227" cy="118.952" rx="1.49468" ry="1.50573" fill="black"/>
<ellipse cx="17.7227" cy="127.987" rx="1.49468" ry="1.50573" fill="black"/>
<ellipse cx="17.7227" cy="137.021" rx="1.49468" ry="1.50573" fill="black"/>
<ellipse cx="17.7227" cy="146.055" rx="1.49468" ry="1.50573" fill="black"/>
<ellipse cx="17.7227" cy="155.09" rx="1.49468" ry="1.50573" fill="black"/>
<ellipse cx="17.7227" cy="164.124" rx="1.49468" ry="1.50573" fill="black"/>
<ellipse cx="17.7227" cy="173.159" rx="1.49468" ry="1.50573" fill="black"/>
<ellipse cx="25.8367" cy="1.50573" rx="1.49468" ry="1.50573" fill="black"/>
<ellipse cx="25.8367" cy="10.5401" rx="1.49468" ry="1.50573" fill="black"/>
<ellipse cx="25.8367" cy="19.5744" rx="1.49468" ry="1.50573" fill="black"/>
<ellipse cx="25.8367" cy="28.6088" rx="1.49468" ry="1.50573" fill="black"/>
<ellipse cx="25.8367" cy="37.6432" rx="1.49468" ry="1.50573" fill="black"/>
<ellipse cx="25.8367" cy="46.6775" rx="1.49468" ry="1.50573" fill="black"/>
<ellipse cx="25.8367" cy="55.7119" rx="1.49468" ry="1.50573" fill="black"/>
<ellipse cx="25.8367" cy="64.7462" rx="1.49468" ry="1.50573" fill="black"/>
<ellipse cx="25.8367" cy="73.7806" rx="1.49468" ry="1.50573" fill="black"/>
<ellipse cx="25.8367" cy="82.8149" rx="1.49468" ry="1.50573" fill="black"/>
<ellipse cx="25.8367" cy="91.8493" rx="1.49468" ry="1.50573" fill="black"/>
<ellipse cx="25.8367" cy="100.884" rx="1.49468" ry="1.50573" fill="black"/>
<ellipse cx="25.8367" cy="109.918" rx="1.49468" ry="1.50573" fill="black"/>
<ellipse cx="25.8367" cy="118.952" rx="1.49468" ry="1.50573" fill="black"/>
<ellipse cx="25.8367" cy="127.987" rx="1.49468" ry="1.50573" fill="black"/>
<ellipse cx="25.8367" cy="137.021" rx="1.49468" ry="1.50573" fill="black"/>
<ellipse cx="25.8367" cy="146.055" rx="1.49468" ry="1.50573" fill="black"/>
<ellipse cx="25.8367" cy="155.09" rx="1.49468" ry="1.50573" fill="black"/>
<ellipse cx="25.8367" cy="164.124" rx="1.49468" ry="1.50573" fill="black"/>
<ellipse cx="25.8367" cy="173.159" rx="1.49468" ry="1.50573" fill="black"/>
<ellipse cx="33.9505" cy="1.50573" rx="1.49468" ry="1.50573" fill="black"/>
<ellipse cx="33.9505" cy="10.5401" rx="1.49468" ry="1.50573" fill="black"/>
<ellipse cx="33.9505" cy="19.5744" rx="1.49468" ry="1.50573" fill="black"/>
<ellipse cx="33.9505" cy="28.6088" rx="1.49468" ry="1.50573" fill="black"/>
<ellipse cx="33.9505" cy="37.6432" rx="1.49468" ry="1.50573" fill="black"/>
<ellipse cx="33.9505" cy="46.6775" rx="1.49468" ry="1.50573" fill="black"/>
<ellipse cx="33.9505" cy="55.7119" rx="1.49468" ry="1.50573" fill="black"/>
<ellipse cx="33.9505" cy="64.7462" rx="1.49468" ry="1.50573" fill="black"/>
<ellipse cx="33.9505" cy="73.7806" rx="1.49468" ry="1.50573" fill="black"/>
<ellipse cx="33.9505" cy="82.8149" rx="1.49468" ry="1.50573" fill="black"/>
<ellipse cx="33.9505" cy="91.8493" rx="1.49468" ry="1.50573" fill="black"/>
<ellipse cx="33.9505" cy="100.884" rx="1.49468" ry="1.50573" fill="black"/>
<ellipse cx="33.9505" cy="109.918" rx="1.49468" ry="1.50573" fill="black"/>
<ellipse cx="33.9505" cy="118.952" rx="1.49468" ry="1.50573" fill="black"/>
<ellipse cx="33.9505" cy="127.987" rx="1.49468" ry="1.50573" fill="black"/>
<ellipse cx="33.9505" cy="137.021" rx="1.49468" ry="1.50573" fill="black"/>
<ellipse cx="33.9505" cy="146.055" rx="1.49468" ry="1.50573" fill="black"/>
<ellipse cx="33.9505" cy="155.09" rx="1.49468" ry="1.50573" fill="black"/>
<ellipse cx="33.9505" cy="164.124" rx="1.49468" ry="1.50573" fill="black"/>
<ellipse cx="33.9505" cy="173.159" rx="1.49468" ry="1.50573" fill="black"/>
<ellipse cx="42.0645" cy="1.50573" rx="1.49468" ry="1.50573" fill="black"/>
<ellipse cx="42.0645" cy="10.5401" rx="1.49468" ry="1.50573" fill="black"/>
<ellipse cx="42.0645" cy="19.5744" rx="1.49468" ry="1.50573" fill="black"/>
<ellipse cx="42.0645" cy="28.6088" rx="1.49468" ry="1.50573" fill="black"/>
<ellipse cx="42.0645" cy="37.6432" rx="1.49468" ry="1.50573" fill="black"/>
<ellipse cx="42.0645" cy="46.6775" rx="1.49468" ry="1.50573" fill="black"/>
<ellipse cx="42.0645" cy="55.7119" rx="1.49468" ry="1.50573" fill="black"/>
<ellipse cx="42.0645" cy="64.7462" rx="1.49468" ry="1.50573" fill="black"/>
<ellipse cx="42.0645" cy="73.7806" rx="1.49468" ry="1.50573" fill="black"/>
<ellipse cx="42.0645" cy="82.8149" rx="1.49468" ry="1.50573" fill="black"/>
<ellipse cx="42.0645" cy="91.8493" rx="1.49468" ry="1.50573" fill="black"/>
<ellipse cx="42.0645" cy="100.884" rx="1.49468" ry="1.50573" fill="black"/>
<ellipse cx="42.0645" cy="109.918" rx="1.49468" ry="1.50573" fill="black"/>
<ellipse cx="42.0645" cy="118.952" rx="1.49468" ry="1.50573" fill="black"/>
<ellipse cx="42.0645" cy="127.987" rx="1.49468" ry="1.50573" fill="black"/>
<ellipse cx="42.0645" cy="137.021" rx="1.49468" ry="1.50573" fill="black"/>
<ellipse cx="42.0645" cy="146.055" rx="1.49468" ry="1.50573" fill="black"/>
<ellipse cx="42.0645" cy="155.09" rx="1.49468" ry="1.50573" fill="black"/>
<ellipse cx="42.0645" cy="164.124" rx="1.49468" ry="1.50573" fill="black"/>
<ellipse cx="42.0645" cy="173.159" rx="1.49468" ry="1.50573" fill="black"/>
<ellipse cx="50.1785" cy="1.50573" rx="1.49468" ry="1.50573" fill="black"/>
<ellipse cx="50.1785" cy="10.5401" rx="1.49468" ry="1.50573" fill="black"/>
<ellipse cx="50.1785" cy="19.5744" rx="1.49468" ry="1.50573" fill="black"/>
<ellipse cx="50.1785" cy="28.6088" rx="1.49468" ry="1.50573" fill="black"/>
<ellipse cx="50.1785" cy="37.6432" rx="1.49468" ry="1.50573" fill="black"/>
<ellipse cx="50.1785" cy="46.6775" rx="1.49468" ry="1.50573" fill="black"/>
<ellipse cx="50.1785" cy="55.7119" rx="1.49468" ry="1.50573" fill="black"/>
<ellipse cx="50.1785" cy="64.7462" rx="1.49468" ry="1.50573" fill="black"/>
<ellipse cx="50.1785" cy="73.7806" rx="1.49468" ry="1.50573" fill="black"/>
<ellipse cx="50.1785" cy="82.8149" rx="1.49468" ry="1.50573" fill="black"/>
<ellipse cx="50.1785" cy="91.8493" rx="1.49468" ry="1.50573" fill="black"/>
<ellipse cx="50.1785" cy="100.884" rx="1.49468" ry="1.50573" fill="black"/>
<ellipse cx="50.1785" cy="109.918" rx="1.49468" ry="1.50573" fill="black"/>
<ellipse cx="50.1785" cy="118.952" rx="1.49468" ry="1.50573" fill="black"/>
<ellipse cx="50.1785" cy="127.987" rx="1.49468" ry="1.50573" fill="black"/>
<ellipse cx="50.1785" cy="137.021" rx="1.49468" ry="1.50573" fill="black"/>
<ellipse cx="50.1785" cy="146.055" rx="1.49468" ry="1.50573" fill="black"/>
<ellipse cx="50.1785" cy="155.09" rx="1.49468" ry="1.50573" fill="black"/>
<ellipse cx="50.1785" cy="164.124" rx="1.49468" ry="1.50573" fill="black"/>
<ellipse cx="50.1785" cy="173.159" rx="1.49468" ry="1.50573" fill="black"/>
<ellipse cx="58.2925" cy="1.50573" rx="1.49468" ry="1.50573" fill="black"/>
<ellipse cx="58.2925" cy="10.5401" rx="1.49468" ry="1.50573" fill="black"/>
<ellipse cx="58.2925" cy="19.5744" rx="1.49468" ry="1.50573" fill="black"/>
<ellipse cx="58.2925" cy="28.6088" rx="1.49468" ry="1.50573" fill="black"/>
<ellipse cx="58.2925" cy="37.6432" rx="1.49468" ry="1.50573" fill="black"/>
<ellipse cx="58.2925" cy="46.6775" rx="1.49468" ry="1.50573" fill="black"/>
<ellipse cx="58.2925" cy="55.7119" rx="1.49468" ry="1.50573" fill="black"/>
<ellipse cx="58.2925" cy="64.7462" rx="1.49468" ry="1.50573" fill="black"/>
<ellipse cx="58.2925" cy="73.7806" rx="1.49468" ry="1.50573" fill="black"/>
<ellipse cx="58.2925" cy="82.8149" rx="1.49468" ry="1.50573" fill="black"/>
<ellipse cx="58.2925" cy="91.8493" rx="1.49468" ry="1.50573" fill="black"/>
<ellipse cx="58.2925" cy="100.884" rx="1.49468" ry="1.50573" fill="black"/>
<ellipse cx="58.2925" cy="109.918" rx="1.49468" ry="1.50573" fill="black"/>
<ellipse cx="58.2925" cy="118.952" rx="1.49468" ry="1.50573" fill="black"/>
<ellipse cx="58.2925" cy="127.987" rx="1.49468" ry="1.50573" fill="black"/>
<ellipse cx="58.2925" cy="137.021" rx="1.49468" ry="1.50573" fill="black"/>
<ellipse cx="58.2925" cy="146.055" rx="1.49468" ry="1.50573" fill="black"/>
<ellipse cx="58.2925" cy="155.09" rx="1.49468" ry="1.50573" fill="black"/>
<ellipse cx="58.2925" cy="164.124" rx="1.49468" ry="1.50573" fill="black"/>
<ellipse cx="58.2925" cy="173.159" rx="1.49468" ry="1.50573" fill="black"/>
</g>
</svg>
